<mxfile host="app.diagrams.net" modified="2021-11-17T14:44:03.348Z" agent="5.0 (Windows NT 10.0; Win64; x64) AppleWebKit/537.36 (KHTML, like Gecko) Chrome/95.0.4638.69 Safari/537.36 Edg/95.0.1020.53" etag="zv6FomEHQrU8Gy3gCKT4" version="15.7.4" type="github">
  <diagram name="Page-1" id="c4acf3e9-155e-7222-9cf6-157b1a14988f">
    <mxGraphModel dx="2980" dy="965" grid="1" gridSize="10" guides="1" tooltips="1" connect="1" arrows="1" fold="1" page="1" pageScale="1" pageWidth="850" pageHeight="1100" background="none" math="0" shadow="0">
      <root>
        <mxCell id="0" />
        <mxCell id="1" parent="0" />
        <mxCell id="tVSR4F9iazNKwAi776XE-37" style="edgeStyle=orthogonalEdgeStyle;rounded=0;orthogonalLoop=1;jettySize=auto;html=1;exitX=1;exitY=0.5;exitDx=0;exitDy=0;dashed=1;endArrow=block;endFill=0;" parent="1" source="tVSR4F9iazNKwAi776XE-25" target="tVSR4F9iazNKwAi776XE-30" edge="1">
          <mxGeometry relative="1" as="geometry" />
        </mxCell>
        <mxCell id="tVSR4F9iazNKwAi776XE-25" value="OJ Adaptor" style="html=1;" parent="1" vertex="1">
          <mxGeometry x="-475" y="98.5" width="110" height="40" as="geometry" />
        </mxCell>
        <mxCell id="tVSR4F9iazNKwAi776XE-30" value="&lt;p style=&quot;margin: 0px ; margin-top: 4px ; text-align: center&quot;&gt;&lt;i&gt;&amp;lt;&amp;lt;Interface&amp;gt;&amp;gt;&lt;/i&gt;&lt;br&gt;&lt;b&gt;OJ interface&lt;/b&gt;&lt;/p&gt;&lt;hr size=&quot;1&quot;&gt;&lt;p style=&quot;margin: 0px ; margin-left: 4px&quot;&gt;+ authorize()&lt;/p&gt;&lt;p style=&quot;margin: 0px ; margin-left: 4px&quot;&gt;+ sendProblem(user_token)&lt;/p&gt;&lt;p style=&quot;margin: 0px ; margin-left: 4px&quot;&gt;+ evaluate(text)&lt;/p&gt;" style="verticalAlign=top;align=left;overflow=fill;fontSize=12;fontFamily=Helvetica;html=1;" parent="1" vertex="1">
          <mxGeometry x="-320" y="71" width="150" height="95" as="geometry" />
        </mxCell>
        <mxCell id="tVSR4F9iazNKwAi776XE-56" style="edgeStyle=orthogonalEdgeStyle;rounded=0;orthogonalLoop=1;jettySize=auto;html=1;exitX=0.493;exitY=0.999;exitDx=0;exitDy=0;endArrow=classicThin;endFill=1;exitPerimeter=0;" parent="1" source="yGW41BksWWjNKtK1v9zT-5" target="tVSR4F9iazNKwAi776XE-5" edge="1">
          <mxGeometry relative="1" as="geometry">
            <mxPoint x="110" y="189" as="sourcePoint" />
          </mxGeometry>
        </mxCell>
        <mxCell id="tVSR4F9iazNKwAi776XE-71" value="" style="group" parent="1" vertex="1" connectable="0">
          <mxGeometry x="-120" y="380" width="240" height="290" as="geometry" />
        </mxCell>
        <mxCell id="tVSR4F9iazNKwAi776XE-5" value="EditorService" style="swimlane;fontStyle=1;align=center;verticalAlign=top;childLayout=stackLayout;horizontal=1;startSize=26;horizontalStack=0;resizeParent=1;resizeParentMax=0;resizeLast=0;collapsible=1;marginBottom=0;" parent="tVSR4F9iazNKwAi776XE-71" vertex="1">
          <mxGeometry x="10" width="220" height="280" as="geometry" />
        </mxCell>
        <mxCell id="tVSR4F9iazNKwAi776XE-6" value="- text_buffer&#xa;- auto_hint_buffer&#xa;- compile_result_buffer&#xa;- execution_buffer&#xa;- binary_token" style="text;strokeColor=none;fillColor=none;align=left;verticalAlign=top;spacingLeft=4;spacingRight=4;overflow=hidden;rotatable=0;points=[[0,0.5],[1,0.5]];portConstraint=eastwest;" parent="tVSR4F9iazNKwAi776XE-5" vertex="1">
          <mxGeometry y="26" width="220" height="84" as="geometry" />
        </mxCell>
        <mxCell id="tVSR4F9iazNKwAi776XE-7" value="" style="line;strokeWidth=1;fillColor=none;align=left;verticalAlign=middle;spacingTop=-1;spacingLeft=3;spacingRight=3;rotatable=0;labelPosition=right;points=[];portConstraint=eastwest;" parent="tVSR4F9iazNKwAi776XE-5" vertex="1">
          <mxGeometry y="110" width="220" height="8.5" as="geometry" />
        </mxCell>
        <mxCell id="tVSR4F9iazNKwAi776XE-8" value="- display()&#xa;- connect_server()&#xa;- render()&#xa;- compile()&#xa;- execute()&#xa;+ get_text()&#xa;- BreakpointInfo()&#xa;- LanguageClient()&#xa;- addMissingAction()&#xa;- interceptOpenEditor()&#xa;- opencodeEditor()" style="text;strokeColor=none;fillColor=none;align=left;verticalAlign=top;spacingLeft=4;spacingRight=4;overflow=hidden;rotatable=0;points=[[0,0.5],[1,0.5]];portConstraint=eastwest;" parent="tVSR4F9iazNKwAi776XE-5" vertex="1">
          <mxGeometry y="118.5" width="220" height="161.5" as="geometry" />
        </mxCell>
        <mxCell id="tVSR4F9iazNKwAi776XE-69" value="" style="html=1;points=[];perimeter=orthogonalPerimeter;glass=1;verticalAlign=middle;" parent="tVSR4F9iazNKwAi776XE-71" vertex="1">
          <mxGeometry width="10" height="280" as="geometry" />
        </mxCell>
        <mxCell id="tVSR4F9iazNKwAi776XE-70" value="" style="html=1;points=[];perimeter=orthogonalPerimeter;glass=1;verticalAlign=middle;" parent="tVSR4F9iazNKwAi776XE-71" vertex="1">
          <mxGeometry x="230" width="10" height="280" as="geometry" />
        </mxCell>
        <mxCell id="jlhTubElEdLQrutXq7Bg-2" value="" style="endArrow=open;html=1;endSize=12;startArrow=diamondThin;startSize=14;startFill=0;edgeStyle=orthogonalEdgeStyle;rounded=0;entryX=0;entryY=0.5;entryDx=0;entryDy=0;" parent="1" target="Y1Agx9ZV4h5USdjDB4uj-9" edge="1">
          <mxGeometry relative="1" as="geometry">
            <mxPoint y="50" as="sourcePoint" />
            <mxPoint x="-170" y="340" as="targetPoint" />
            <Array as="points">
              <mxPoint y="30" />
              <mxPoint x="140" y="30" />
              <mxPoint x="140" y="228" />
            </Array>
          </mxGeometry>
        </mxCell>
        <mxCell id="jlhTubElEdLQrutXq7Bg-3" value="1" style="edgeLabel;resizable=0;html=1;align=left;verticalAlign=top;glass=1;" parent="jlhTubElEdLQrutXq7Bg-2" connectable="0" vertex="1">
          <mxGeometry x="-1" relative="1" as="geometry">
            <mxPoint x="10" y="-30" as="offset" />
          </mxGeometry>
        </mxCell>
        <mxCell id="jlhTubElEdLQrutXq7Bg-4" value="1...n" style="edgeLabel;resizable=0;html=1;align=right;verticalAlign=top;glass=1;" parent="jlhTubElEdLQrutXq7Bg-2" connectable="0" vertex="1">
          <mxGeometry x="1" relative="1" as="geometry" />
        </mxCell>
        <mxCell id="faGFXYO3NY95E5Bay46V-3" value="Compile Service" style="swimlane;fontStyle=3;align=center;verticalAlign=top;childLayout=stackLayout;horizontal=1;startSize=26;horizontalStack=0;resizeParent=1;resizeLast=0;collapsible=1;marginBottom=0;rounded=0;shadow=0;strokeWidth=1;fontSize=12;" parent="1" vertex="1">
          <mxGeometry x="-370" y="620" width="160" height="140" as="geometry">
            <mxRectangle x="230" y="140" width="160" height="26" as="alternateBounds" />
          </mxGeometry>
        </mxCell>
        <mxCell id="faGFXYO3NY95E5Bay46V-4" value="Â " style="text;align=left;verticalAlign=top;spacingLeft=4;spacingRight=4;overflow=hidden;rotatable=0;points=[[0,0.5],[1,0.5]];portConstraint=eastwest;fontSize=12;" parent="faGFXYO3NY95E5Bay46V-3" vertex="1">
          <mxGeometry y="26" width="160" height="26" as="geometry" />
        </mxCell>
        <mxCell id="faGFXYO3NY95E5Bay46V-5" value="" style="line;html=1;strokeWidth=1;align=left;verticalAlign=middle;spacingTop=-1;spacingLeft=3;spacingRight=3;rotatable=0;labelPosition=right;points=[];portConstraint=eastwest;fontSize=12;" parent="faGFXYO3NY95E5Bay46V-3" vertex="1">
          <mxGeometry y="52" width="160" height="8" as="geometry" />
        </mxCell>
        <mxCell id="faGFXYO3NY95E5Bay46V-6" value="- File compile()&#xa;&#xa;- Interactive compile()" style="text;align=left;verticalAlign=middle;spacingLeft=4;spacingRight=4;overflow=hidden;rotatable=0;points=[[0,0.5],[1,0.5]];portConstraint=eastwest;fontSize=12;" parent="faGFXYO3NY95E5Bay46V-3" vertex="1">
          <mxGeometry y="60" width="160" height="80" as="geometry" />
        </mxCell>
        <mxCell id="faGFXYO3NY95E5Bay46V-8" value="Execute Service" style="swimlane;fontStyle=3;align=center;verticalAlign=top;childLayout=stackLayout;horizontal=1;startSize=26;horizontalStack=0;resizeParent=1;resizeLast=0;collapsible=1;marginBottom=0;rounded=0;shadow=0;strokeWidth=1;fontSize=12;" parent="1" vertex="1">
          <mxGeometry x="-715" y="626" width="160" height="112" as="geometry">
            <mxRectangle x="230" y="140" width="160" height="26" as="alternateBounds" />
          </mxGeometry>
        </mxCell>
        <mxCell id="faGFXYO3NY95E5Bay46V-9" value="+Sender" style="text;align=left;verticalAlign=top;spacingLeft=4;spacingRight=4;overflow=hidden;rotatable=0;points=[[0,0.5],[1,0.5]];portConstraint=eastwest;fontSize=12;" parent="faGFXYO3NY95E5Bay46V-8" vertex="1">
          <mxGeometry y="26" width="160" height="26" as="geometry" />
        </mxCell>
        <mxCell id="faGFXYO3NY95E5Bay46V-10" value="+Receiver" style="text;align=left;verticalAlign=top;spacingLeft=4;spacingRight=4;overflow=hidden;rotatable=0;points=[[0,0.5],[1,0.5]];portConstraint=eastwest;rounded=0;shadow=0;html=0;fontSize=12;" parent="faGFXYO3NY95E5Bay46V-8" vertex="1">
          <mxGeometry y="52" width="160" height="26" as="geometry" />
        </mxCell>
        <mxCell id="faGFXYO3NY95E5Bay46V-11" value="" style="line;html=1;strokeWidth=1;align=left;verticalAlign=middle;spacingTop=-1;spacingLeft=3;spacingRight=3;rotatable=0;labelPosition=right;points=[];portConstraint=eastwest;fontSize=12;" parent="faGFXYO3NY95E5Bay46V-8" vertex="1">
          <mxGeometry y="78" width="160" height="8" as="geometry" />
        </mxCell>
        <mxCell id="faGFXYO3NY95E5Bay46V-12" value="-Open Dialog()" style="text;align=left;verticalAlign=top;spacingLeft=4;spacingRight=4;overflow=hidden;rotatable=0;points=[[0,0.5],[1,0.5]];portConstraint=eastwest;fontSize=12;" parent="faGFXYO3NY95E5Bay46V-8" vertex="1">
          <mxGeometry y="86" width="160" height="26" as="geometry" />
        </mxCell>
        <mxCell id="faGFXYO3NY95E5Bay46V-17" value="Web Socket Service" style="swimlane;fontStyle=3;align=center;verticalAlign=top;childLayout=stackLayout;horizontal=1;startSize=26;horizontalStack=0;resizeParent=1;resizeLast=0;collapsible=1;marginBottom=0;rounded=0;shadow=0;strokeWidth=1;fontSize=12;" parent="1" vertex="1">
          <mxGeometry x="500" y="560" width="160" height="100" as="geometry">
            <mxRectangle x="230" y="140" width="160" height="26" as="alternateBounds" />
          </mxGeometry>
        </mxCell>
        <mxCell id="faGFXYO3NY95E5Bay46V-18" value="- sender&#xa;- receiver&#xa;" style="text;align=left;verticalAlign=top;spacingLeft=4;spacingRight=4;overflow=hidden;rotatable=0;points=[[0,0.5],[1,0.5]];portConstraint=eastwest;fontSize=12;" parent="faGFXYO3NY95E5Bay46V-17" vertex="1">
          <mxGeometry y="26" width="160" height="44" as="geometry" />
        </mxCell>
        <mxCell id="faGFXYO3NY95E5Bay46V-19" value="" style="line;html=1;strokeWidth=1;align=left;verticalAlign=middle;spacingTop=-1;spacingLeft=3;spacingRight=3;rotatable=0;labelPosition=right;points=[];portConstraint=eastwest;fontSize=12;" parent="faGFXYO3NY95E5Bay46V-17" vertex="1">
          <mxGeometry y="70" width="160" height="8" as="geometry" />
        </mxCell>
        <mxCell id="yGW41BksWWjNKtK1v9zT-16" value="&lt;div align=&quot;left&quot;&gt;- Httpclient()&lt;/div&gt;" style="text;html=1;align=left;verticalAlign=middle;resizable=0;points=[];autosize=1;strokeColor=none;fillColor=none;" parent="faGFXYO3NY95E5Bay46V-17" vertex="1">
          <mxGeometry y="78" width="160" height="20" as="geometry" />
        </mxCell>
        <mxCell id="faGFXYO3NY95E5Bay46V-20" value="&lt;p style=&quot;margin: 0px ; margin-top: 4px ; text-align: center&quot;&gt;&lt;i&gt;&amp;lt;&amp;lt;Interface&amp;gt;&amp;gt;&lt;/i&gt;&lt;br&gt;&lt;b&gt;Language Interface&lt;/b&gt;&lt;/p&gt;&lt;hr size=&quot;1&quot;&gt;&lt;p style=&quot;margin: 0px 0px 0px 4px&quot;&gt;+ connect()&lt;/p&gt;&lt;p style=&quot;margin: 0px 0px 0px 4px&quot;&gt;+ render(text)&lt;/p&gt;" style="verticalAlign=top;align=left;overflow=fill;fontSize=12;fontFamily=Helvetica;html=1;" parent="1" vertex="1">
          <mxGeometry x="210" y="450" width="160" height="80" as="geometry" />
        </mxCell>
        <mxCell id="faGFXYO3NY95E5Bay46V-21" value="&lt;p style=&quot;margin: 0px ; margin-top: 4px ; text-align: center&quot;&gt;&lt;br&gt;&lt;b&gt;Language Service&lt;/b&gt;&lt;/p&gt;&lt;hr size=&quot;1&quot;&gt;&lt;p style=&quot;margin: 0px ; margin-left: 4px&quot;&gt;&lt;br&gt;&lt;/p&gt;&lt;p style=&quot;margin: 0px ; margin-left: 4px&quot;&gt;&lt;br&gt;&lt;/p&gt;" style="verticalAlign=top;align=left;overflow=fill;fontSize=12;fontFamily=Helvetica;html=1;" parent="1" vertex="1">
          <mxGeometry x="210" y="570" width="160" height="80" as="geometry" />
        </mxCell>
        <mxCell id="faGFXYO3NY95E5Bay46V-22" value="" style="html=1;verticalAlign=bottom;endArrow=open;dashed=1;endSize=8;fontSize=12;entryX=1;entryY=0.5;entryDx=0;entryDy=0;exitX=0;exitY=0.5;exitDx=0;exitDy=0;" parent="1" source="faGFXYO3NY95E5Bay46V-18" target="faGFXYO3NY95E5Bay46V-21" edge="1">
          <mxGeometry relative="1" as="geometry">
            <mxPoint x="440" y="610" as="sourcePoint" />
            <mxPoint x="460" y="640" as="targetPoint" />
            <Array as="points" />
          </mxGeometry>
        </mxCell>
        <mxCell id="6LIX0YxZePgUZMCnU0vi-1" value="Use" style="edgeLabel;html=1;align=center;verticalAlign=middle;resizable=0;points=[];" parent="faGFXYO3NY95E5Bay46V-22" vertex="1" connectable="0">
          <mxGeometry x="-0.2214" y="2" relative="1" as="geometry">
            <mxPoint x="-5" y="-1" as="offset" />
          </mxGeometry>
        </mxCell>
        <mxCell id="faGFXYO3NY95E5Bay46V-23" value="" style="endArrow=block;dashed=1;endFill=0;endSize=12;html=1;fontSize=12;exitX=0.5;exitY=0;exitDx=0;exitDy=0;" parent="1" source="faGFXYO3NY95E5Bay46V-21" edge="1">
          <mxGeometry width="160" relative="1" as="geometry">
            <mxPoint x="290.5" y="570" as="sourcePoint" />
            <mxPoint x="289.5" y="531" as="targetPoint" />
          </mxGeometry>
        </mxCell>
        <mxCell id="faGFXYO3NY95E5Bay46V-25" value="Tabs Service" style="swimlane;fontStyle=3;align=center;verticalAlign=top;childLayout=stackLayout;horizontal=1;startSize=26;horizontalStack=0;resizeParent=1;resizeLast=0;collapsible=1;marginBottom=0;rounded=0;shadow=0;strokeWidth=1;fontSize=12;" parent="1" vertex="1">
          <mxGeometry x="-75" y="730" width="160" height="170" as="geometry">
            <mxRectangle x="230" y="140" width="160" height="26" as="alternateBounds" />
          </mxGeometry>
        </mxCell>
        <mxCell id="faGFXYO3NY95E5Bay46V-26" value="- key&#xa;- type&#xa;- title&#xa;- readOnly" style="text;align=left;verticalAlign=top;spacingLeft=4;spacingRight=4;overflow=hidden;rotatable=0;points=[[0,0.5],[1,0.5]];portConstraint=eastwest;fontSize=12;" parent="faGFXYO3NY95E5Bay46V-25" vertex="1">
          <mxGeometry y="26" width="160" height="74" as="geometry" />
        </mxCell>
        <mxCell id="faGFXYO3NY95E5Bay46V-27" value="" style="line;html=1;strokeWidth=1;align=left;verticalAlign=middle;spacingTop=-1;spacingLeft=3;spacingRight=3;rotatable=0;labelPosition=right;points=[];portConstraint=eastwest;fontSize=12;" parent="faGFXYO3NY95E5Bay46V-25" vertex="1">
          <mxGeometry y="100" width="160" height="8" as="geometry" />
        </mxCell>
        <mxCell id="faGFXYO3NY95E5Bay46V-28" value="- GetActive()&#xa;- getbykey()&#xa;- ChangeActive()" style="text;align=left;verticalAlign=top;spacingLeft=4;spacingRight=4;overflow=hidden;rotatable=0;points=[[0,0.5],[1,0.5]];portConstraint=eastwest;fontSize=12;" parent="faGFXYO3NY95E5Bay46V-25" vertex="1">
          <mxGeometry y="108" width="160" height="62" as="geometry" />
        </mxCell>
        <mxCell id="faGFXYO3NY95E5Bay46V-31" value="File Service" style="swimlane;fontStyle=3;align=center;verticalAlign=top;childLayout=stackLayout;horizontal=1;startSize=26;horizontalStack=0;resizeParent=1;resizeLast=0;collapsible=1;marginBottom=0;rounded=0;shadow=0;strokeWidth=1;fontSize=12;" parent="1" vertex="1">
          <mxGeometry x="-585" y="360" width="160" height="100" as="geometry">
            <mxRectangle x="230" y="140" width="160" height="26" as="alternateBounds" />
          </mxGeometry>
        </mxCell>
        <mxCell id="faGFXYO3NY95E5Bay46V-32" value="Â " style="text;align=left;verticalAlign=top;spacingLeft=4;spacingRight=4;overflow=hidden;rotatable=0;points=[[0,0.5],[1,0.5]];portConstraint=eastwest;fontSize=12;" parent="faGFXYO3NY95E5Bay46V-31" vertex="1">
          <mxGeometry y="26" width="160" height="26" as="geometry" />
        </mxCell>
        <mxCell id="faGFXYO3NY95E5Bay46V-33" value="" style="line;html=1;strokeWidth=1;align=left;verticalAlign=middle;spacingTop=-1;spacingLeft=3;spacingRight=3;rotatable=0;labelPosition=right;points=[];portConstraint=eastwest;fontSize=12;" parent="faGFXYO3NY95E5Bay46V-31" vertex="1">
          <mxGeometry y="52" width="160" height="8" as="geometry" />
        </mxCell>
        <mxCell id="faGFXYO3NY95E5Bay46V-34" value="- Open()&#xa;- Locate()" style="text;align=left;verticalAlign=top;spacingLeft=4;spacingRight=4;overflow=hidden;rotatable=0;points=[[0,0.5],[1,0.5]];portConstraint=eastwest;fontSize=12;" parent="faGFXYO3NY95E5Bay46V-31" vertex="1">
          <mxGeometry y="60" width="160" height="40" as="geometry" />
        </mxCell>
        <mxCell id="yHNNJBOxuJklAPtwvvFz-4" value="Use" style="endArrow=open;endSize=12;dashed=1;html=1;entryX=0;entryY=0.5;entryDx=0;entryDy=0;exitX=1;exitY=0.832;exitDx=0;exitDy=0;exitPerimeter=0;" parent="1" source="tVSR4F9iazNKwAi776XE-70" target="faGFXYO3NY95E5Bay46V-21" edge="1">
          <mxGeometry width="160" relative="1" as="geometry">
            <mxPoint x="150" y="630" as="sourcePoint" />
            <mxPoint x="120" y="569.5" as="targetPoint" />
          </mxGeometry>
        </mxCell>
        <mxCell id="yHNNJBOxuJklAPtwvvFz-9" value="Text Buffer" style="swimlane;fontStyle=1;align=center;verticalAlign=top;childLayout=stackLayout;horizontal=1;startSize=26;horizontalStack=0;resizeParent=1;resizeParentMax=0;resizeLast=0;collapsible=1;marginBottom=0;glass=1;" parent="1" vertex="1">
          <mxGeometry x="210" y="329" width="160" height="100" as="geometry" />
        </mxCell>
        <mxCell id="yHNNJBOxuJklAPtwvvFz-10" value="- text_buffer" style="text;strokeColor=none;fillColor=none;align=left;verticalAlign=top;spacingLeft=4;spacingRight=4;overflow=hidden;rotatable=0;points=[[0,0.5],[1,0.5]];portConstraint=eastwest;glass=1;" parent="yHNNJBOxuJklAPtwvvFz-9" vertex="1">
          <mxGeometry y="26" width="160" height="26" as="geometry" />
        </mxCell>
        <mxCell id="yHNNJBOxuJklAPtwvvFz-11" value="" style="line;strokeWidth=1;fillColor=none;align=left;verticalAlign=middle;spacingTop=-1;spacingLeft=3;spacingRight=3;rotatable=0;labelPosition=right;points=[];portConstraint=eastwest;glass=1;" parent="yHNNJBOxuJklAPtwvvFz-9" vertex="1">
          <mxGeometry y="52" width="160" height="8" as="geometry" />
        </mxCell>
        <mxCell id="yHNNJBOxuJklAPtwvvFz-12" value="+ readText()&#xa;+ write()" style="text;strokeColor=none;fillColor=none;align=left;verticalAlign=top;spacingLeft=4;spacingRight=4;overflow=hidden;rotatable=0;points=[[0,0.5],[1,0.5]];portConstraint=eastwest;glass=1;" parent="yHNNJBOxuJklAPtwvvFz-9" vertex="1">
          <mxGeometry y="60" width="160" height="40" as="geometry" />
        </mxCell>
        <mxCell id="yHNNJBOxuJklAPtwvvFz-13" value="Extends" style="endArrow=block;endSize=16;endFill=0;html=1;rounded=0;entryX=-0.001;entryY=0.962;entryDx=0;entryDy=0;entryPerimeter=0;exitX=1.28;exitY=0.311;exitDx=0;exitDy=0;exitPerimeter=0;" parent="1" source="tVSR4F9iazNKwAi776XE-70" target="yHNNJBOxuJklAPtwvvFz-10" edge="1">
          <mxGeometry width="160" relative="1" as="geometry">
            <mxPoint x="130" y="449" as="sourcePoint" />
            <mxPoint x="290" y="449" as="targetPoint" />
          </mxGeometry>
        </mxCell>
        <mxCell id="yHNNJBOxuJklAPtwvvFz-14" value="text_buffer" style="endArrow=block;endFill=1;html=1;edgeStyle=orthogonalEdgeStyle;align=left;verticalAlign=top;rounded=0;entryX=0;entryY=0.5;entryDx=0;entryDy=0;" parent="1" target="yHNNJBOxuJklAPtwvvFz-10" edge="1">
          <mxGeometry x="-1" relative="1" as="geometry">
            <mxPoint x="130" y="280" as="sourcePoint" />
            <mxPoint x="280.0400000000001" y="279.62472222222226" as="targetPoint" />
            <Array as="points">
              <mxPoint x="180" y="280" />
              <mxPoint x="180" y="368" />
            </Array>
          </mxGeometry>
        </mxCell>
        <mxCell id="yHNNJBOxuJklAPtwvvFz-15" value="1" style="edgeLabel;resizable=0;html=1;align=left;verticalAlign=bottom;glass=1;" parent="yHNNJBOxuJklAPtwvvFz-14" connectable="0" vertex="1">
          <mxGeometry x="-1" relative="1" as="geometry" />
        </mxCell>
        <mxCell id="yHNNJBOxuJklAPtwvvFz-16" value="read" style="text;html=1;align=center;verticalAlign=middle;resizable=0;points=[];autosize=1;strokeColor=none;fillColor=none;" parent="1" vertex="1">
          <mxGeometry x="160" y="309" width="40" height="20" as="geometry" />
        </mxCell>
        <mxCell id="Z0xy5dgiEV_JfPnE8OX9-1" value="Action Service" style="swimlane;fontStyle=3;align=center;verticalAlign=top;childLayout=stackLayout;horizontal=1;startSize=26;horizontalStack=0;resizeParent=1;resizeLast=0;collapsible=1;marginBottom=0;rounded=0;shadow=0;strokeWidth=1;fontSize=12;" parent="1" vertex="1">
          <mxGeometry x="-370" y="390" width="160" height="150" as="geometry">
            <mxRectangle x="230" y="140" width="160" height="26" as="alternateBounds" />
          </mxGeometry>
        </mxCell>
        <mxCell id="Z0xy5dgiEV_JfPnE8OX9-2" value="Â " style="text;align=left;verticalAlign=top;spacingLeft=4;spacingRight=4;overflow=hidden;rotatable=0;points=[[0,0.5],[1,0.5]];portConstraint=eastwest;fontSize=12;" parent="Z0xy5dgiEV_JfPnE8OX9-1" vertex="1">
          <mxGeometry y="26" width="160" height="26" as="geometry" />
        </mxCell>
        <mxCell id="Z0xy5dgiEV_JfPnE8OX9-3" value="" style="line;html=1;strokeWidth=1;align=left;verticalAlign=middle;spacingTop=-1;spacingLeft=3;spacingRight=3;rotatable=0;labelPosition=right;points=[];portConstraint=eastwest;fontSize=12;" parent="Z0xy5dgiEV_JfPnE8OX9-1" vertex="1">
          <mxGeometry y="52" width="160" height="8" as="geometry" />
        </mxCell>
        <mxCell id="Z0xy5dgiEV_JfPnE8OX9-4" value="- compile()&#xa;- execute()&#xa;- Fileopen()&#xa;- Filelocate()&#xa;- connectserve()" style="text;align=left;verticalAlign=top;spacingLeft=4;spacingRight=4;overflow=hidden;rotatable=0;points=[[0,0.5],[1,0.5]];portConstraint=eastwest;fontSize=12;" parent="Z0xy5dgiEV_JfPnE8OX9-1" vertex="1">
          <mxGeometry y="60" width="160" height="90" as="geometry" />
        </mxCell>
        <mxCell id="Z0xy5dgiEV_JfPnE8OX9-6" value="Use" style="endArrow=open;endSize=12;dashed=1;html=1;exitX=0.511;exitY=1.003;exitDx=0;exitDy=0;exitPerimeter=0;entryX=0.5;entryY=0;entryDx=0;entryDy=0;" parent="1" source="tVSR4F9iazNKwAi776XE-8" target="faGFXYO3NY95E5Bay46V-25" edge="1">
          <mxGeometry width="160" relative="1" as="geometry">
            <mxPoint x="-1" y="720" as="sourcePoint" />
            <mxPoint x="50" y="690" as="targetPoint" />
          </mxGeometry>
        </mxCell>
        <mxCell id="Z0xy5dgiEV_JfPnE8OX9-7" value="" style="endArrow=open;endFill=1;endSize=12;html=1;rounded=0;exitX=-0.333;exitY=0.453;exitDx=0;exitDy=0;exitPerimeter=0;entryX=1;entryY=0.367;entryDx=0;entryDy=0;entryPerimeter=0;" parent="1" source="tVSR4F9iazNKwAi776XE-69" target="Z0xy5dgiEV_JfPnE8OX9-4" edge="1">
          <mxGeometry width="160" relative="1" as="geometry">
            <mxPoint x="-210" y="479.28999999999996" as="sourcePoint" />
            <mxPoint x="-180" y="420" as="targetPoint" />
          </mxGeometry>
        </mxCell>
        <mxCell id="Z0xy5dgiEV_JfPnE8OX9-8" value="token" style="edgeLabel;html=1;align=center;verticalAlign=middle;resizable=0;points=[];" parent="Z0xy5dgiEV_JfPnE8OX9-7" vertex="1" connectable="0">
          <mxGeometry x="-0.4736" y="-2" relative="1" as="geometry">
            <mxPoint x="-24" y="-1" as="offset" />
          </mxGeometry>
        </mxCell>
        <mxCell id="Z0xy5dgiEV_JfPnE8OX9-10" value="Use" style="endArrow=open;endSize=12;dashed=1;html=1;exitX=0.846;exitY=1.041;exitDx=0;exitDy=0;exitPerimeter=0;entryX=0.859;entryY=-0.014;entryDx=0;entryDy=0;entryPerimeter=0;" parent="1" source="Z0xy5dgiEV_JfPnE8OX9-4" target="faGFXYO3NY95E5Bay46V-3" edge="1">
          <mxGeometry x="-0.0323" width="160" relative="1" as="geometry">
            <mxPoint x="-350" y="610" as="sourcePoint" />
            <mxPoint x="-290" y="600" as="targetPoint" />
            <mxPoint as="offset" />
          </mxGeometry>
        </mxCell>
        <mxCell id="Z0xy5dgiEV_JfPnE8OX9-12" style="edgeStyle=orthogonalEdgeStyle;rounded=0;orthogonalLoop=1;jettySize=auto;html=1;exitX=1;exitY=0.5;exitDx=0;exitDy=0;entryX=0;entryY=0.5;entryDx=0;entryDy=0;" parent="1" source="faGFXYO3NY95E5Bay46V-12" target="faGFXYO3NY95E5Bay46V-4" edge="1">
          <mxGeometry relative="1" as="geometry" />
        </mxCell>
        <mxCell id="yGW41BksWWjNKtK1v9zT-15" value="Sender" style="edgeLabel;html=1;align=center;verticalAlign=middle;resizable=0;points=[];" parent="Z0xy5dgiEV_JfPnE8OX9-12" vertex="1" connectable="0">
          <mxGeometry x="0.1986" y="-1" relative="1" as="geometry">
            <mxPoint x="1" y="1" as="offset" />
          </mxGeometry>
        </mxCell>
        <mxCell id="Z0xy5dgiEV_JfPnE8OX9-14" value="Use" style="endArrow=open;endSize=12;dashed=1;html=1;exitX=-0.005;exitY=0.996;exitDx=0;exitDy=0;exitPerimeter=0;entryX=1;entryY=0;entryDx=0;entryDy=0;" parent="1" source="Z0xy5dgiEV_JfPnE8OX9-4" target="faGFXYO3NY95E5Bay46V-8" edge="1">
          <mxGeometry x="-0.0323" width="160" relative="1" as="geometry">
            <mxPoint x="-530" y="622" as="sourcePoint" />
            <mxPoint x="-520" y="500" as="targetPoint" />
            <mxPoint as="offset" />
          </mxGeometry>
        </mxCell>
        <mxCell id="Z0xy5dgiEV_JfPnE8OX9-15" value="Use" style="endArrow=open;endSize=12;dashed=1;html=1;exitX=-0.005;exitY=-0.019;exitDx=0;exitDy=0;exitPerimeter=0;entryX=1;entryY=0.033;entryDx=0;entryDy=0;entryPerimeter=0;" parent="1" source="Z0xy5dgiEV_JfPnE8OX9-2" target="faGFXYO3NY95E5Bay46V-34" edge="1">
          <mxGeometry x="-0.0323" width="160" relative="1" as="geometry">
            <mxPoint x="-430" y="410" as="sourcePoint" />
            <mxPoint x="-410" y="440" as="targetPoint" />
            <mxPoint as="offset" />
          </mxGeometry>
        </mxCell>
        <mxCell id="yGW41BksWWjNKtK1v9zT-1" value="" style="group" parent="1" vertex="1" connectable="0">
          <mxGeometry x="-120" y="50" width="250" height="270" as="geometry" />
        </mxCell>
        <mxCell id="yGW41BksWWjNKtK1v9zT-2" value="OJ Manager" style="swimlane;fontStyle=1;align=center;verticalAlign=top;childLayout=stackLayout;horizontal=1;startSize=26;horizontalStack=0;resizeParent=1;resizeParentMax=0;resizeLast=0;collapsible=1;marginBottom=0;glass=1;" parent="yGW41BksWWjNKtK1v9zT-1" vertex="1">
          <mxGeometry x="10.96" y="2.3392857142857144" width="229.08" height="266.2946031746032" as="geometry" />
        </mxCell>
        <mxCell id="yGW41BksWWjNKtK1v9zT-3" value="- user_Info&#xa;- result_buffer&#xa;- is_logged_in&#xa;- text_bufferÂ &#xa;- current_problem_id" style="text;strokeColor=none;fillColor=none;align=left;verticalAlign=top;spacingLeft=4;spacingRight=4;overflow=hidden;rotatable=0;points=[[0,0.5],[1,0.5]];portConstraint=eastwest;" parent="yGW41BksWWjNKtK1v9zT-2" vertex="1">
          <mxGeometry y="26" width="229.08" height="80.36746031746033" as="geometry" />
        </mxCell>
        <mxCell id="yGW41BksWWjNKtK1v9zT-4" value="" style="line;strokeWidth=1;fillColor=none;align=left;verticalAlign=middle;spacingTop=-1;spacingLeft=3;spacingRight=3;rotatable=0;labelPosition=right;points=[];portConstraint=eastwest;" parent="yGW41BksWWjNKtK1v9zT-2" vertex="1">
          <mxGeometry y="106.36746031746033" width="229.08" height="9.35714285714286" as="geometry" />
        </mxCell>
        <mxCell id="yGW41BksWWjNKtK1v9zT-5" value="- log_in(login_form)&#xa;- sign_in(sign_in_form)&#xa;- log_out() &#xa;- change_account(change_account_form)&#xa;- authorize()&#xa;- unauthorize()&#xa;- get_problem_Info()&#xa;- submit()&#xa;- display()" style="text;strokeColor=none;fillColor=none;align=left;verticalAlign=middle;spacingLeft=4;spacingRight=4;overflow=hidden;rotatable=0;points=[[0,0.5],[1,0.5]];portConstraint=eastwest;" parent="yGW41BksWWjNKtK1v9zT-2" vertex="1">
          <mxGeometry y="115.72460317460319" width="229.08" height="150.57" as="geometry" />
        </mxCell>
        <mxCell id="yGW41BksWWjNKtK1v9zT-6" value="" style="html=1;points=[];perimeter=orthogonalPerimeter;glass=1;verticalAlign=middle;" parent="yGW41BksWWjNKtK1v9zT-1" vertex="1">
          <mxGeometry width="9.96" height="270" as="geometry" />
        </mxCell>
        <mxCell id="yGW41BksWWjNKtK1v9zT-7" value="" style="html=1;points=[];perimeter=orthogonalPerimeter;glass=1;verticalAlign=middle;" parent="yGW41BksWWjNKtK1v9zT-1" vertex="1">
          <mxGeometry x="240.04" y="2.34" width="9.96" height="267.66" as="geometry" />
        </mxCell>
        <mxCell id="yGW41BksWWjNKtK1v9zT-8" value="1" style="edgeLabel;resizable=0;html=1;align=left;verticalAlign=bottom;glass=1;" parent="1" connectable="0" vertex="1">
          <mxGeometry x="130" y="243" as="geometry" />
        </mxCell>
        <mxCell id="yGW41BksWWjNKtK1v9zT-9" value="Use" style="endArrow=open;endSize=12;dashed=1;html=1;rounded=0;" parent="1" edge="1">
          <mxGeometry x="-0.2" width="160" relative="1" as="geometry">
            <mxPoint x="-120" y="114" as="sourcePoint" />
            <mxPoint x="-170" y="114" as="targetPoint" />
            <mxPoint as="offset" />
          </mxGeometry>
        </mxCell>
        <mxCell id="yGW41BksWWjNKtK1v9zT-10" value="Login Page" style="swimlane;fontStyle=3;align=center;verticalAlign=top;childLayout=stackLayout;horizontal=1;startSize=26;horizontalStack=0;resizeParent=1;resizeLast=0;collapsible=1;marginBottom=0;rounded=0;shadow=0;strokeWidth=1;fontSize=12;" parent="1" vertex="1">
          <mxGeometry x="480" y="140" width="250" height="210" as="geometry">
            <mxRectangle x="230" y="140" width="160" height="26" as="alternateBounds" />
          </mxGeometry>
        </mxCell>
        <mxCell id="yGW41BksWWjNKtK1v9zT-11" value="- username&#xa;- passward&#xa;- logintab&#xa;- remember_checkbox&#xa;- setAccountInfo&#xa;" style="text;align=left;verticalAlign=top;spacingLeft=4;spacingRight=4;overflow=hidden;rotatable=0;points=[[0,0.5],[1,0.5]];portConstraint=eastwest;fontSize=12;" parent="yGW41BksWWjNKtK1v9zT-10" vertex="1">
          <mxGeometry y="26" width="250" height="84" as="geometry" />
        </mxCell>
        <mxCell id="yGW41BksWWjNKtK1v9zT-12" value="" style="line;html=1;strokeWidth=1;align=left;verticalAlign=middle;spacingTop=-1;spacingLeft=3;spacingRight=3;rotatable=0;labelPosition=right;points=[];portConstraint=eastwest;fontSize=12;" parent="yGW41BksWWjNKtK1v9zT-10" vertex="1">
          <mxGeometry y="110" width="250" height="8" as="geometry" />
        </mxCell>
        <mxCell id="yGW41BksWWjNKtK1v9zT-13" value="- log_in(login_form)&#xa;- sign_in(sign_in_form)&#xa;- log_out() &#xa;- change_account(change_account_form)&#xa;- authorize()&#xa;- unauthorize()" style="text;align=left;verticalAlign=top;spacingLeft=4;spacingRight=4;overflow=hidden;rotatable=0;points=[[0,0.5],[1,0.5]];portConstraint=eastwest;fontSize=12;" parent="yGW41BksWWjNKtK1v9zT-10" vertex="1">
          <mxGeometry y="118" width="250" height="92" as="geometry" />
        </mxCell>
        <mxCell id="yGW41BksWWjNKtK1v9zT-14" value="" style="endArrow=open;endSize=12;dashed=1;html=1;entryX=1.023;entryY=0.975;entryDx=0;entryDy=0;exitX=-0.004;exitY=0.74;exitDx=0;exitDy=0;exitPerimeter=0;entryPerimeter=0;" parent="1" target="Y1Agx9ZV4h5USdjDB4uj-9" edge="1" source="yGW41BksWWjNKtK1v9zT-11">
          <mxGeometry width="160" relative="1" as="geometry">
            <mxPoint x="440" y="199" as="sourcePoint" />
            <mxPoint x="360" y="189.5" as="targetPoint" />
          </mxGeometry>
        </mxCell>
        <mxCell id="yGW41BksWWjNKtK1v9zT-22" value="Use" style="edgeLabel;html=1;align=center;verticalAlign=middle;resizable=0;points=[];" parent="yGW41BksWWjNKtK1v9zT-14" vertex="1" connectable="0">
          <mxGeometry x="-0.25" relative="1" as="geometry">
            <mxPoint as="offset" />
          </mxGeometry>
        </mxCell>
        <mxCell id="yGW41BksWWjNKtK1v9zT-17" value="" style="html=1;verticalAlign=bottom;endArrow=open;dashed=1;endSize=8;fontSize=12;exitX=0.382;exitY=1.026;exitDx=0;exitDy=0;entryX=0.456;entryY=-0.01;entryDx=0;entryDy=0;entryPerimeter=0;exitPerimeter=0;" parent="1" source="yGW41BksWWjNKtK1v9zT-13" target="faGFXYO3NY95E5Bay46V-17" edge="1">
          <mxGeometry relative="1" as="geometry">
            <mxPoint x="530" y="380" as="sourcePoint" />
            <mxPoint x="620" y="380" as="targetPoint" />
            <Array as="points" />
          </mxGeometry>
        </mxCell>
        <mxCell id="yGW41BksWWjNKtK1v9zT-23" value="Use" style="edgeLabel;html=1;align=center;verticalAlign=middle;resizable=0;points=[];" parent="yGW41BksWWjNKtK1v9zT-17" vertex="1" connectable="0">
          <mxGeometry x="0.1542" y="2" relative="1" as="geometry">
            <mxPoint as="offset" />
          </mxGeometry>
        </mxCell>
        <mxCell id="yGW41BksWWjNKtK1v9zT-18" value="Main Page" style="swimlane;fontStyle=3;align=center;verticalAlign=top;childLayout=stackLayout;horizontal=1;startSize=26;horizontalStack=0;resizeParent=1;resizeLast=0;collapsible=1;marginBottom=0;rounded=0;shadow=0;strokeWidth=1;fontSize=12;" parent="1" vertex="1">
          <mxGeometry x="-770" y="80" width="260" height="230" as="geometry">
            <mxRectangle x="230" y="140" width="160" height="26" as="alternateBounds" />
          </mxGeometry>
        </mxCell>
        <mxCell id="yGW41BksWWjNKtK1v9zT-19" value="- footerÂ Â Â Â Â Â Â Â Â Â Â Â Â Â Â Â Â Â Â  -execute-dialog&#xa;- headerÂ Â Â Â Â Â Â Â Â Â Â Â Â Â Â Â Â  - tools&#xa;- sidebarÂ Â Â Â Â Â Â Â Â Â Â Â  Â  Â  - tabs&#xa;- mainviewÂ Â Â Â Â Â Â Â Â Â Â Â Â  - problem&#xa;- output&#xa;&#xa;&#xa;&#xa;&#xa;" style="text;align=left;verticalAlign=top;spacingLeft=4;spacingRight=4;overflow=hidden;rotatable=0;points=[[0,0.5],[1,0.5]];portConstraint=eastwest;fontSize=12;" parent="yGW41BksWWjNKtK1v9zT-18" vertex="1">
          <mxGeometry y="26" width="260" height="84" as="geometry" />
        </mxCell>
        <mxCell id="yGW41BksWWjNKtK1v9zT-20" value="" style="line;html=1;strokeWidth=1;align=left;verticalAlign=middle;spacingTop=-1;spacingLeft=3;spacingRight=3;rotatable=0;labelPosition=right;points=[];portConstraint=eastwest;fontSize=12;" parent="yGW41BksWWjNKtK1v9zT-18" vertex="1">
          <mxGeometry y="110" width="260" height="8" as="geometry" />
        </mxCell>
        <mxCell id="yGW41BksWWjNKtK1v9zT-21" value="- get_problem_Info()Â  Â  - BreakpointInfo()&#xa;- submit()Â Â Â Â Â Â Â Â Â Â Â Â Â Â Â Â Â Â Â Â  - opencodeEditor()&#xa;- display()Â Â Â Â Â Â Â Â Â Â Â Â Â Â Â Â Â Â  Â  - LanguageClient()&#xa;- render()Â Â Â Â Â Â Â Â Â Â Â Â Â Â Â Â Â Â Â Â  - interceptOpenEditor()&#xa;- compile()Â Â Â Â Â Â Â Â Â Â Â Â Â  Â Â  Â  - addMissingAction()&#xa;- execute()&#xa;+ get_text()&#xa;&#xa;&#xa;&#xa;&#xa;" style="text;align=left;verticalAlign=top;spacingLeft=4;spacingRight=4;overflow=hidden;rotatable=0;points=[[0,0.5],[1,0.5]];portConstraint=eastwest;fontSize=12;" parent="yGW41BksWWjNKtK1v9zT-18" vertex="1">
          <mxGeometry y="118" width="260" height="112" as="geometry" />
        </mxCell>
        <mxCell id="yGW41BksWWjNKtK1v9zT-24" value="" style="endArrow=open;endSize=12;dashed=1;html=1;entryX=-0.301;entryY=0.632;entryDx=0;entryDy=0;exitX=1.012;exitY=0.845;exitDx=0;exitDy=0;exitPerimeter=0;entryPerimeter=0;" parent="1" source="yGW41BksWWjNKtK1v9zT-19" target="yGW41BksWWjNKtK1v9zT-6" edge="1">
          <mxGeometry width="160" relative="1" as="geometry">
            <mxPoint x="-360" y="220" as="sourcePoint" />
            <mxPoint x="-440" y="220" as="targetPoint" />
          </mxGeometry>
        </mxCell>
        <mxCell id="yGW41BksWWjNKtK1v9zT-25" value="Use" style="edgeLabel;html=1;align=center;verticalAlign=middle;resizable=0;points=[];" parent="yGW41BksWWjNKtK1v9zT-24" vertex="1" connectable="0">
          <mxGeometry x="-0.25" relative="1" as="geometry">
            <mxPoint as="offset" />
          </mxGeometry>
        </mxCell>
        <mxCell id="yGW41BksWWjNKtK1v9zT-26" value="" style="endArrow=open;endSize=12;dashed=1;html=1;entryX=0.438;entryY=-0.027;entryDx=0;entryDy=0;exitX=1.012;exitY=0.845;exitDx=0;exitDy=0;exitPerimeter=0;entryPerimeter=0;" parent="1" target="Z0xy5dgiEV_JfPnE8OX9-1" edge="1">
          <mxGeometry width="160" relative="1" as="geometry">
            <mxPoint x="-503.8800000000001" y="230.00000000000003" as="sourcePoint" />
            <mxPoint x="-119.99800796812747" y="267.12557142857145" as="targetPoint" />
          </mxGeometry>
        </mxCell>
        <mxCell id="yGW41BksWWjNKtK1v9zT-27" value="Use" style="edgeLabel;html=1;align=center;verticalAlign=middle;resizable=0;points=[];" parent="yGW41BksWWjNKtK1v9zT-26" vertex="1" connectable="0">
          <mxGeometry x="-0.25" relative="1" as="geometry">
            <mxPoint as="offset" />
          </mxGeometry>
        </mxCell>
        <mxCell id="yGW41BksWWjNKtK1v9zT-28" value="" style="endArrow=open;endSize=12;dashed=1;html=1;entryX=-0.3;entryY=0.079;entryDx=0;entryDy=0;exitX=1.012;exitY=0.845;exitDx=0;exitDy=0;exitPerimeter=0;entryPerimeter=0;" parent="1" target="tVSR4F9iazNKwAi776XE-69" edge="1">
          <mxGeometry width="160" relative="1" as="geometry">
            <mxPoint x="-510.0000000000001" y="210" as="sourcePoint" />
            <mxPoint x="-306.0400000000001" y="365.95000000000005" as="targetPoint" />
          </mxGeometry>
        </mxCell>
        <mxCell id="yGW41BksWWjNKtK1v9zT-29" value="Use" style="edgeLabel;html=1;align=center;verticalAlign=middle;resizable=0;points=[];" parent="yGW41BksWWjNKtK1v9zT-28" vertex="1" connectable="0">
          <mxGeometry x="-0.25" relative="1" as="geometry">
            <mxPoint as="offset" />
          </mxGeometry>
        </mxCell>
        <mxCell id="Z0xy5dgiEV_JfPnE8OX9-5" value="" style="edgeStyle=orthogonalEdgeStyle;rounded=0;orthogonalLoop=1;jettySize=auto;html=1;exitX=1;exitY=0.649;exitDx=0;exitDy=0;exitPerimeter=0;" parent="1" source="tVSR4F9iazNKwAi776XE-70" target="faGFXYO3NY95E5Bay46V-20" edge="1">
          <mxGeometry relative="1" as="geometry" />
        </mxCell>
        <mxCell id="Y1Agx9ZV4h5USdjDB4uj-8" value="User Info" style="swimlane;fontStyle=1;align=center;verticalAlign=top;childLayout=stackLayout;horizontal=1;startSize=26;horizontalStack=0;resizeParent=1;resizeParentMax=0;resizeLast=0;collapsible=1;marginBottom=0;" vertex="1" parent="1">
          <mxGeometry x="265" y="116" width="160" height="196" as="geometry" />
        </mxCell>
        <mxCell id="Y1Agx9ZV4h5USdjDB4uj-9" value="~ username&#xa;~ email&#xa;~ password&#xa;~ authorized OJ&#xa;~ authorized token&#xa;~ current problem" style="text;strokeColor=none;fillColor=none;align=left;verticalAlign=top;spacingLeft=4;spacingRight=4;overflow=hidden;rotatable=0;points=[[0,0.5],[1,0.5]];portConstraint=eastwest;" vertex="1" parent="Y1Agx9ZV4h5USdjDB4uj-8">
          <mxGeometry y="26" width="160" height="90" as="geometry" />
        </mxCell>
        <mxCell id="Y1Agx9ZV4h5USdjDB4uj-10" value="" style="line;strokeWidth=1;fillColor=none;align=left;verticalAlign=middle;spacingTop=-1;spacingLeft=3;spacingRight=3;rotatable=0;labelPosition=right;points=[];portConstraint=eastwest;" vertex="1" parent="Y1Agx9ZV4h5USdjDB4uj-8">
          <mxGeometry y="116" width="160" height="8" as="geometry" />
        </mxCell>
        <mxCell id="Y1Agx9ZV4h5USdjDB4uj-11" value="+construct()&#xa;+query()&#xa;+save()&#xa;+update()" style="text;strokeColor=none;fillColor=none;align=left;verticalAlign=top;spacingLeft=4;spacingRight=4;overflow=hidden;rotatable=0;points=[[0,0.5],[1,0.5]];portConstraint=eastwest;" vertex="1" parent="Y1Agx9ZV4h5USdjDB4uj-8">
          <mxGeometry y="124" width="160" height="72" as="geometry" />
        </mxCell>
        <mxCell id="Y1Agx9ZV4h5USdjDB4uj-13" value="Data Base Service" style="swimlane;fontStyle=1;align=center;verticalAlign=top;childLayout=stackLayout;horizontal=1;startSize=26;horizontalStack=0;resizeParent=1;resizeParentMax=0;resizeLast=0;collapsible=1;marginBottom=0;" vertex="1" parent="1">
          <mxGeometry x="280" y="679" width="160" height="182" as="geometry" />
        </mxCell>
        <mxCell id="Y1Agx9ZV4h5USdjDB4uj-14" value="- database configuration&#xa;- User Info&#xa;- temp Executable Info&#xa;" style="text;strokeColor=none;fillColor=none;align=left;verticalAlign=top;spacingLeft=4;spacingRight=4;overflow=hidden;rotatable=0;points=[[0,0.5],[1,0.5]];portConstraint=eastwest;" vertex="1" parent="Y1Agx9ZV4h5USdjDB4uj-13">
          <mxGeometry y="26" width="160" height="52" as="geometry" />
        </mxCell>
        <mxCell id="Y1Agx9ZV4h5USdjDB4uj-15" value="" style="line;strokeWidth=1;fillColor=none;align=left;verticalAlign=middle;spacingTop=-1;spacingLeft=3;spacingRight=3;rotatable=0;labelPosition=right;points=[];portConstraint=eastwest;" vertex="1" parent="Y1Agx9ZV4h5USdjDB4uj-13">
          <mxGeometry y="78" width="160" height="8" as="geometry" />
        </mxCell>
        <mxCell id="Y1Agx9ZV4h5USdjDB4uj-16" value="+ query_user_info()&#xa;+ update_user_info()&#xa;+ save_user_info()&#xa;+ query_executable_info()&#xa;+ save_executable_info()&#xa;- clear_executable()" style="text;strokeColor=none;fillColor=none;align=left;verticalAlign=top;spacingLeft=4;spacingRight=4;overflow=hidden;rotatable=0;points=[[0,0.5],[1,0.5]];portConstraint=eastwest;" vertex="1" parent="Y1Agx9ZV4h5USdjDB4uj-13">
          <mxGeometry y="86" width="160" height="96" as="geometry" />
        </mxCell>
        <mxCell id="Y1Agx9ZV4h5USdjDB4uj-18" value="Use" style="endArrow=open;endSize=12;dashed=1;html=1;rounded=0;exitX=1;exitY=0.5;exitDx=0;exitDy=0;entryX=0;entryY=0.5;entryDx=0;entryDy=0;" edge="1" parent="1" source="faGFXYO3NY95E5Bay46V-6" target="Y1Agx9ZV4h5USdjDB4uj-14">
          <mxGeometry width="160" relative="1" as="geometry">
            <mxPoint x="-260" y="910" as="sourcePoint" />
            <mxPoint x="-100" y="910" as="targetPoint" />
          </mxGeometry>
        </mxCell>
        <mxCell id="Y1Agx9ZV4h5USdjDB4uj-19" value="Use" style="endArrow=open;endSize=12;dashed=1;html=1;rounded=0;entryX=0.825;entryY=-0.022;entryDx=0;entryDy=0;exitX=0.894;exitY=1.014;exitDx=0;exitDy=0;exitPerimeter=0;entryPerimeter=0;" edge="1" parent="1" source="Y1Agx9ZV4h5USdjDB4uj-11" target="Y1Agx9ZV4h5USdjDB4uj-13">
          <mxGeometry width="160" relative="1" as="geometry">
            <mxPoint x="440" y="500" as="sourcePoint" />
            <mxPoint x="600" y="500" as="targetPoint" />
          </mxGeometry>
        </mxCell>
      </root>
    </mxGraphModel>
  </diagram>
</mxfile>
